<svg t="1641379620175" class="icon" viewBox="0 0 1024 1024" version="1.1" xmlns="http://www.w3.org/2000/svg" p-id="33590" width="128" height="128"><path d="M885.333333 266.666667H768v-64C768 149.738667 725.290667 106.666667 672.746667 106.666667H352A96.106667 96.106667 0 0 0 256 202.666667v64H138.666667c-17.706667 0-32 14.293333-32 32s14.293333 32 32 32h746.666666c17.706667 0 32-14.293333 32-32s-14.293333-32-32-32zM320 202.666667c0-17.621333 14.378667-32 32-32h320.746667C690.24 170.666667 704 184.725333 704 202.666667v64H320v-64zM736.128 917.333333H288.064a96.128 96.128 0 0 1-96-96l1.194667-384a32 32 0 0 1 64 0l-1.194667 384c0 17.664 14.378667 32 32 32h448.064a32 32 0 0 0 32-32l-0.234667-384a32 32 0 1 1 64 0l0.234667 384c0 52.928-43.072 96-96 96z" p-id="33591"></path><path d="M384 469.333333m32 0l0 0q32 0 32 32l0 192q0 32-32 32l0 0q-32 0-32-32l0-192q0-32 32-32Z" p-id="33592"></path><path d="M576 469.333333m32 0l0 0q32 0 32 32l0 192q0 32-32 32l0 0q-32 0-32-32l0-192q0-32 32-32Z" p-id="33593"></path></svg>