<svg t="1641882526050" class="icon" viewBox="0 0 1024 1024" version="1.1" xmlns="http://www.w3.org/2000/svg" p-id="2747" width="64" height="64"><path d="M853.333333 170.666667a85.333333 85.333333 0 0 1 85.333334 85.333333v512a85.333333 85.333333 0 0 1-85.333334 85.333333H170.666667a85.333333 85.333333 0 0 1-85.333334-85.333333V256a85.333333 85.333333 0 0 1 85.333334-85.333333h682.666666z m0 85.333333H170.666667v512h682.666666V256z m-128 341.333333a42.666667 42.666667 0 0 1 0 85.333334H298.666667a42.666667 42.666667 0 0 1 0-85.333334h426.666666z m0-128a42.666667 42.666667 0 0 1 0 85.333334h-85.333333a42.666667 42.666667 0 0 1 0-85.333334h85.333333z m-256-128a42.666667 42.666667 0 0 1 0 85.333334h-42.666666v85.333333a42.666667 42.666667 0 0 1-85.333334 0v-85.333333H298.666667a42.666667 42.666667 0 1 1 0-85.333334h170.666666z m256 0a42.666667 42.666667 0 0 1 0 85.333334h-85.333333a42.666667 42.666667 0 0 1 0-85.333334h85.333333z" p-id="2748"></path></svg>