<svg t="1643189792424" class="icon" viewBox="0 0 1024 1024" version="1.1" xmlns="http://www.w3.org/2000/svg" p-id="2321" width="64" height="64"><path d="M489.6 489.8H198.4c-37.1 0-67.2-30.1-67.2-67.2v-224c0-37.1 30.1-67.2 67.2-67.2h224c37.1 0 67.2 30.1 67.2 67.2v291.2z m-268.8-89.6H400V221H220.8v179.2zM825.6 489.8H534.4V198.6c0-37.1 30.1-67.2 67.2-67.2h224c37.1 0 67.2 30.1 67.2 67.2v224c0 37.1-30.1 67.2-67.2 67.2zM624 400.2h179.2V221H624v179.2zM422.4 893h-224c-37.1 0-67.2-30.1-67.2-67.2v-224c0-37.1 30.1-67.2 67.2-67.2h291.2v291.2c0 37.1-30.1 67.2-67.2 67.2z m-201.6-89.6H400V624.2H220.8v179.2zM534.4 534.6h134.4V669H534.4z" p-id="2322"></path><path d="M646.4 646.6h134.4V781H646.4z" p-id="2323"></path><path d="M758.4 534.6h134.4V669H758.4zM534.4 758.6h134.4V893H534.4zM758.4 758.6h134.4V893H758.4z" p-id="2324"></path></svg>