<svg t="1641366601669" class="icon" viewBox="0 0 1024 1024" version="1.1" xmlns="http://www.w3.org/2000/svg" p-id="27176" width="128" height="128"><path d="M-242.12320149-242.12320149m754.12320149 0l0 0q754.12320149 0 754.12320149 754.12320149l0 0q0 754.12320149-754.12320149 754.12320149l0 0q-754.12320149 0-754.12320149-754.12320149l0 0q0-754.12320149 754.12320149-754.12320149Z" fill="#FFFFFF" p-id="27177"></path><path d="M155.496296 370.119111C155.496296 310.234074 204.075615 261.688889 263.998578 261.688889H759.99763C819.924385 261.688889 868.503704 310.234074 868.503704 370.119111v211.702519c0 59.885037-48.579319 108.430222-108.502282 108.430222H263.998578C204.075615 690.251852 155.496296 641.706667 155.496296 581.82163V370.119111z" fill="#4CA7FC" p-id="27178"></path><path d="M341.333333 610.607407V345.125926h75.851852v265.481481H341.333333zM610.607407 610.607407V345.125926h75.851852v265.481481h-75.851852z" fill="#FFFFFF" p-id="27179"></path><path d="M726.281481 898.844444c0-19.770785-7.56243-46.626133-18.568533-64.845748-11.002311-18.219615-27.113244-34.717393-47.392237-48.522429-20.278993-13.805037-44.308859-24.640474-70.678755-31.869156-26.369896-7.228681-54.545067-10.698904-82.864356-10.213452-28.323081 0.485452-56.2176 4.922785-82.048948 13.042726-25.827556 8.123733-49.06477 19.770785-68.342519 34.258489-19.281541 14.483911-34.212978 31.516444-43.918222 50.08877-9.709037 18.572326-13.990874 38.316563-12.5952 58.0608H726.281481z" fill="#4CA7FC" p-id="27180"></path><path d="M548.166163 178.524919l106.704593-106.704593 40.186311 40.190104-106.7008 106.7008-40.190104-40.186311zM479.201659 178.524919L372.497067 71.820326 332.310756 112.01043l106.7008 106.7008 40.190103-40.186311z" fill="#4CA7FC" p-id="27181"></path></svg>