<svg t="1641644934470" class="icon" viewBox="0 0 1024 1024" version="1.1" xmlns="http://www.w3.org/2000/svg" p-id="60319" width="64" height="64"><path d="M409.01632 142.936747C228.881067 197.358933 148.33664 256.13312 117.316267 356.8128c-7.61856 23.947947-20.135253 45.172053-43.537067 74.01472-66.93888 81.63328-44.62592 141.49632 75.103573 202.448213l31.020373 15.786667L146.158933 649.0624c-28.296533 0-34.829653-1.634987-39.727787-10.88512-14.148267-26.668373-38.638933-2.720427-30.47424 29.934933 6.529707 25.033387 22.31296 35.372373 54.422187 35.372373 73.468587 0 124.624213 41.35936 98.501973 80.001707-16.872107 25.033387-16.872107 30.47424-1.631573 52.24448 7.072427 9.796267 11.42784 20.6848 10.881707 25.033387-2.174293 9.796267 8.707413 16.872107 27.211093 16.872107 29.93152 0 56.057173-21.224107 42.451627-34.829653-10.88512-10.88512-5.986987-29.934933 8.707413-33.7408 53.876053-13.605547 187.20768 40.813227 187.20768 76.72832 0 16.872107 14.15168 24.490667 46.260907 24.490667 33.7408 0 35.915093-9.24672 11.431253-46.257493-22.859093-34.829653-22.859093-35.375787-8.168107-35.375787 28.299947 0 52.790613-32.105813 42.994347-57.1392-3.26656-8.164693-5.444267-14.6944-5.444267-15.77984 0-0.546133 7.621973-0.546133 16.329387 1.08544 20.677973 2.720427 38.0928-11.431253 38.0928-31.566507 0-21.766827-8.707413-27.753813-29.385387-19.0464-9.253547 3.80928-21.77024 4.901547-27.757227 2.720427-8.164693-2.720427-4.352-5.440853 17.41824-10.335573 96.32768-23.401813 135.50592-84.353707 133.33504-207.346347-1.634987-126.2592 52.24448-189.3888 201.898667-237.824 54.422187-17.414827 52.794027-16.325973 37.553493-29.3888-33.19808-26.66496-134.966613-35.918507-267.2128-24.487253-142.578347 11.97056-191.013547 14.690987-191.013547 9.796267 0-2.177707 13.59872-21.22752 30.47424-41.362773C602.75712 104.840533 559.766187 97.221973 409.01632 142.936747L409.01632 142.936747zM413.371733 259.39968c197.546667 50.612907 308.568747 251.972267 198.638933 361.898667-106.666667 106.666667-461.49632 57.688747-545.850027-75.646293-26.12224-40.267093-21.224107-63.122773 24.490667-115.913387 22.31296-25.033387 29.385387-38.096213 35.372373-65.307307C152.692053 250.692267 244.66432 216.951467 413.371733 259.39968zM101.533013 655.58528c11.973973 15.240533 13.605547 31.566507 2.177707 31.566507-9.250133 0-19.0464-16.325973-19.0464-32.105813C84.66432 640.354987 88.4736 640.894293 101.533013 655.58528L101.533013 655.58528zM518.403413 744.2944c15.783253 3.26656 17.41824 4.901547 14.697813 19.049813-2.72384 13.059413-1.092267 15.77984 11.973973 20.677973l15.77984 5.44768-15.77984 5.986987c-21.773653 8.707413-27.76064 5.440853-46.803627-25.0368-18.50368-29.381973-20.135253-35.915093-6.529707-32.105813C496.636587 739.396267 508.607147 742.120107 518.403413 744.2944L518.403413 744.2944zM554.318507 894.501547c-14.6944 5.986987-16.32256 5.986987-26.66496-4.352-8.707413-9.253547-8.707413-9.796267 3.80928-13.062827C548.881067 872.73472 570.105173 888.51456 554.318507 894.501547zM148.33664 388.922027c9.253547 9.796267 23.401813 31.020373 31.020373 46.803627 15.23712 29.93152 26.668373 34.28352 29.3888 11.42784 1.631573-15.783253-29.3888-54.964907-53.879467-67.4816C131.467947 367.1552 129.83296 369.875627 148.33664 388.922027zM408.4736 453.6832c-43.537067 6.53312-84.353707 20.681387-88.162987 30.477653-7.07584 18.50368 8.16128 19.0464 61.494613 1.634987 42.448213-13.605547 66.93888-17.957547 115.37408-20.135253 40.81664-2.177707 60.40576-5.440853 59.32032-9.250133C553.7792 448.785067 453.64224 447.153493 408.4736 453.6832L408.4736 453.6832z" p-id="60320"></path></svg>