<svg t="1640964234256" class="icon" viewBox="0 0 1024 1024" version="1.1" xmlns="http://www.w3.org/2000/svg" p-id="5204" width="128" height="128"><path d="M921.6 204.8H808.96v-87.04c0-7.168-3.072-13.312-7.68-17.92-4.608-4.608-11.264-7.68-17.92-7.68-14.336 0-25.6 11.264-25.6 25.6v87.04h-486.4v-92.16c0-7.168-3.072-13.312-7.68-17.92-4.608-4.608-10.752-7.68-17.92-7.68-14.336 0-25.6 11.264-25.6 25.6v92.16H112.64a56.158 56.158 0 0 0-56.32 56.32v614.4a56.158 56.158 0 0 0 56.32 56.32H921.6a56.158 56.158 0 0 0 56.32-56.32v-614.4a56.158 56.158 0 0 0-56.32-56.32z m5.12 619.52a56.158 56.158 0 0 1-56.32 56.32H163.84a56.158 56.158 0 0 1-56.32-56.32v-512A56.158 56.158 0 0 1 163.84 256H870.4a56.158 56.158 0 0 1 56.32 56.32v512z" p-id="5205"></path></svg>