<svg t="1640511486598" class="icon" viewBox="0 0 1024 1024" version="1.1" xmlns="http://www.w3.org/2000/svg" p-id="2079" width="32" height="32"><path d="M254.94069 64.971034h598.863448c14.830345 0 26.835862 12.005517 26.835862 26.835863v905.357241c0 14.830345-12.005517 26.835862-26.835862 26.835862H167.371034c-14.830345 0-26.835862-12.005517-26.835862-26.835862V91.806897c0-14.830345 12.005517-26.835862 26.835862-26.835863h39.547587" fill="#4988FD" p-id="2080"></path><path d="M206.918621 64.971034h10.593103M841.092414 151.128276v813.550345c0 12.005517-9.886897 21.186207-21.186207 21.186207H207.624828c-12.005517 0-21.186207-9.18069-21.186207-21.186207V151.128276c0-12.005517 9.18069-21.186207 21.186207-21.186207h612.281379c11.29931 0 21.186207 9.18069 21.186207 21.186207z" fill="#FFFFFF" p-id="2081"></path><path d="M721.743448 58.615172c-7.062069-15.536552-22.598621-26.835862-40.96-26.835862H549.428966C546.604138 14.124138 531.067586 0 512 0c-19.067586 0-34.604138 13.417931-37.428966 31.77931H341.804138c-12.005517 0-23.304828 4.943448-31.77931 13.417931-4.237241 4.237241-7.062069 8.474483-9.18069 13.417931-2.118621 5.649655-3.531034 11.29931-3.531035 17.655173 0 24.717241 19.773793 44.491034 44.491035 44.491034H681.489655c12.711724 0 23.304828-4.943448 31.779311-13.417931 7.768276-7.768276 13.417931-19.067586 13.417931-31.77931-1.412414-4.943448-2.824828-11.29931-4.943449-16.948966zM511.293793 24.717241c7.768276 0 14.124138 6.355862 14.124138 14.124138s-6.355862 14.124138-14.124138 14.124138-14.124138-6.355862-14.124138-14.124138 6.355862-14.124138 14.124138-14.124138zM740.811034 322.736552h-50.846896c-7.768276 0-14.124138-6.355862-14.124138-14.124138s6.355862-14.124138 14.124138-14.124138h50.846896c7.768276 0 14.124138 6.355862 14.124138 14.124138s-6.355862 14.124138-14.124138 14.124138z" fill="#C5DCFA" p-id="2082"></path><path d="M653.241379 322.736552H540.248276c-7.768276 0-14.124138-6.355862-14.124138-14.124138s6.355862-14.124138 14.124138-14.124138h113.69931c7.768276 0 14.124138 6.355862 14.124138 14.124138s-7.062069 14.124138-14.830345 14.124138z" fill="#89A8D1" p-id="2083"></path><path d="M500.70069 322.736552h-37.428966c-7.768276 0-14.124138-6.355862-14.124138-14.124138s6.355862-14.124138 14.124138-14.124138h37.428966c7.768276 0 14.124138 6.355862 14.124138 14.124138s-6.355862 14.124138-14.124138 14.124138zM596.744828 386.295172h-20.48c-7.768276 0-14.124138-6.355862-14.124138-14.124138s6.355862-14.124138 14.124138-14.124137H596.744828c7.768276 0 14.124138 6.355862 14.124138 14.124137s-6.355862 14.124138-14.124138 14.124138z" fill="#C5DCFA" p-id="2084"></path><path d="M531.067586 386.295172h-67.795862c-7.768276 0-14.124138-6.355862-14.124138-14.124138s6.355862-14.124138 14.124138-14.124137h67.795862c7.768276 0 14.124138 6.355862 14.124138 14.124137s-6.355862 14.124138-14.124138 14.124138z" fill="#89A8D1" p-id="2085"></path><path d="M340.391724 336.154483m-68.502069 0a68.502069 68.502069 0 1 0 137.004138 0 68.502069 68.502069 0 1 0-137.004138 0Z" fill="#21D3AC" p-id="2086"></path><path d="M327.68 365.815172c-2.824828 0-5.649655-0.706207-7.768276-2.824827l-20.48-20.48c-4.237241-4.237241-4.237241-10.593103 0-14.830345 4.237241-4.237241 10.593103-4.237241 14.830345 0l13.417931 13.417931 33.897931-33.897931c4.237241-4.237241 10.593103-4.237241 14.830345 0 4.237241 4.237241 4.237241 10.593103 0 14.830345l-41.666207 41.666207c-1.412414 1.412414-4.237241 2.118621-7.062069 2.11862z" fill="#FFFFFF" p-id="2087"></path><path d="M740.811034 552.253793h-50.846896c-7.768276 0-14.124138-6.355862-14.124138-14.124138s6.355862-14.124138 14.124138-14.124138h50.846896c7.768276 0 14.124138 6.355862 14.124138 14.124138s-6.355862 14.124138-14.124138 14.124138z" fill="#C5DCFA" p-id="2088"></path><path d="M653.241379 552.253793H540.248276c-7.768276 0-14.124138-6.355862-14.124138-14.124138s6.355862-14.124138 14.124138-14.124138h113.69931c7.768276 0 14.124138 6.355862 14.124138 14.124138s-7.062069 14.124138-14.830345 14.124138z" fill="#89A8D1" p-id="2089"></path><path d="M500.70069 552.253793h-37.428966c-7.768276 0-14.124138-6.355862-14.124138-14.124138s6.355862-14.124138 14.124138-14.124138h37.428966c7.768276 0 14.124138 6.355862 14.124138 14.124138s-6.355862 14.124138-14.124138 14.124138z" fill="#C5DCFA" p-id="2090"></path><path d="M596.744828 615.812414h-20.48c-7.768276 0-14.124138-6.355862-14.124138-14.124138s6.355862-14.124138 14.124138-14.124138H596.744828c7.768276 0 14.124138 6.355862 14.124138 14.124138s-6.355862 14.124138-14.124138 14.124138z" fill="#89A8D1" p-id="2091"></path><path d="M531.067586 615.812414h-67.795862c-7.768276 0-14.124138-6.355862-14.124138-14.124138s6.355862-14.124138 14.124138-14.124138h67.795862c7.768276 0 14.124138 6.355862 14.124138 14.124138s-6.355862 14.124138-14.124138 14.124138z" fill="#C5DCFA" p-id="2092"></path><path d="M339.685517 564.965517m-69.208276 0a69.208276 69.208276 0 1 0 138.416552 0 69.208276 69.208276 0 1 0-138.416552 0Z" fill="#21D3AC" p-id="2093"></path><path d="M327.68 595.332414c-2.824828 0-5.649655-1.412414-7.768276-2.824828L299.431724 572.027586c-4.237241-4.237241-4.237241-10.593103 0-14.830345 4.237241-4.237241 10.593103-4.237241 14.830345 0l13.417931 13.417931L361.577931 536.717241c4.237241-4.237241 10.593103-4.237241 14.830345 0 4.237241 4.237241 4.237241 10.593103 0 14.830345L334.742069 593.213793c-1.412414 1.412414-4.237241 2.118621-7.062069 2.118621z" fill="#FFFFFF" p-id="2094"></path><path d="M653.241379 781.771034H540.248276c-7.768276 0-14.124138-6.355862-14.124138-14.124137s6.355862-14.124138 14.124138-14.124138h113.69931c7.768276 0 14.124138 6.355862 14.124138 14.124138s-7.062069 14.124138-14.830345 14.124137z" fill="#C5DCFA" p-id="2095"></path><path d="M500.70069 781.771034h-37.428966c-7.768276 0-14.124138-6.355862-14.124138-14.124137s6.355862-14.124138 14.124138-14.124138h37.428966c7.768276 0 14.124138 6.355862 14.124138 14.124138s-6.355862 14.124138-14.124138 14.124137z" fill="#89A8D1" p-id="2096"></path><path d="M596.744828 845.329655h-20.48c-7.768276 0-14.124138-6.355862-14.124138-14.124138s6.355862-14.124138 14.124138-14.124138H596.744828c7.768276 0 14.124138 6.355862 14.124138 14.124138s-6.355862 14.124138-14.124138 14.124138z" fill="#C5DCFA" p-id="2097"></path><path d="M531.067586 845.329655h-67.795862c-7.768276 0-14.124138-6.355862-14.124138-14.124138s6.355862-14.124138 14.124138-14.124138h67.795862c7.768276 0 14.124138 6.355862 14.124138 14.124138s-6.355862 14.124138-14.124138 14.124138z" fill="#89A8D1" p-id="2098"></path><path d="M340.391724 795.188966m-69.208276 0a69.208276 69.208276 0 1 0 138.416552 0 69.208276 69.208276 0 1 0-138.416552 0Z" fill="#21D3AC" p-id="2099"></path><path d="M327.68 824.849655c-2.824828 0-5.649655-1.412414-7.768276-2.824827l-20.48-20.48c-4.237241-4.237241-4.237241-10.593103 0-14.830345 4.237241-4.237241 10.593103-4.237241 14.830345 0l13.417931 13.417931 33.897931-33.897931c4.237241-4.237241 10.593103-4.237241 14.830345 0 4.237241 4.237241 4.237241 10.593103 0 14.830345l-41.666207 41.666206c-1.412414 1.412414-4.237241 2.118621-7.062069 2.118621z" fill="#FFFFFF" p-id="2100"></path></svg>