<svg t="1641545838326" class="icon" viewBox="0 0 1024 1024" version="1.1" xmlns="http://www.w3.org/2000/svg" p-id="45125" width="16" height="16"><path d="M783.272333 949.20655c-1.848091 0-3.607154-0.293689-5.249561-0.820692-6.451946-2.287089-10.763135-8.388041-10.763135-15.192004L767.259638 789.016151 422.917102 789.016151c-30.912034 0-56.075133-25.104771-56.075133-56.016805 0-30.912034 25.163099-56.016805 56.075133-56.016805L767.258615 676.982542 767.258615 532.805862c0-6.803963 4.281513-12.845563 10.67513-15.074324 1.612731-0.176009 3.108804-0.234337 4.457522-0.234337 7.214309 0 10.851139 2.052752 13.403265 5.279237L955.956278 723.028251c4.721535 5.865591 4.721535 14.077623 0.029676 19.943215L795.794531 943.223279C792.745079 947.036118 788.198529 949.20655 783.272333 949.20655z" p-id="45126"></path><path d="M240.727667 72.29556c1.848091 0 3.607154 0.293689 5.249561 0.820692 6.451946 2.287089 10.763135 8.388041 10.763135 15.192004l0 144.17668 344.341512 0c30.912034 0 56.075133 25.104771 56.075133 56.016805s-25.163099 56.016805-56.075133 56.016805L256.741385 344.518544l0 144.17668c0 6.803963-4.281513 12.845563-10.67513 15.074324-1.612731 0.176009-3.108804 0.234337-4.457522 0.234337-7.214309 0-10.851139-2.052752-13.403265-5.279237L68.043722 298.473859c-4.721535-5.865591-4.721535-14.077623-0.029676-19.943215L228.204445 78.278831C231.254921 74.465992 235.800447 72.29556 240.727667 72.29556z" p-id="45127"></path></svg>